<svg xmlns="http://www.w3.org/2000/svg" width="3334" height="1427" viewBox="0 0 3334 1427" version="1.1"><path d="M 457 374.152 C 442.112 377.631, 328.782 408.464, 325.378 409.962 C 320.035 412.311, 313.543 418.217, 310.392 423.594 C 309.018 425.938, 306.811 431.902, 305.488 436.847 C 296.212 471.510, 274.714 495.111, 242.497 506.001 C 231.959 509.563, 226.343 513.393, 221.701 520.182 C 214.656 530.488, 214.999 522.915, 215.010 667.960 C 215.021 818.407, 215.273 824.802, 222.606 860.787 C 236.535 929.139, 275.900 997.126, 327.638 1042.185 C 379.987 1087.775, 440.058 1113.721, 507.805 1120 C 515.603 1120.723, 520.300 1120.727, 522.947 1120.014 C 527.672 1118.742, 533.656 1112.410, 534.480 1107.810 C 534.807 1105.989, 534.944 951.950, 534.787 765.500 L 534.500 426.500 531.203 417.054 C 527.117 405.346, 522.825 398.182, 515.432 390.734 C 503.482 378.694, 491.740 373.838, 473.500 373.393 C 466.900 373.232, 459.475 373.573, 457 374.152 M 379 443.427 C 368.596 446.312, 350.088 456.324, 327 471.558 C 299.707 489.566, 296.940 494.132, 295.423 523.671 C 294.629 539.123, 296.529 574.874, 298.643 584.261 C 301.507 596.981, 308.504 604.148, 331.500 617.917 C 348.390 628.030, 383.206 646, 385.911 646 C 387.531 646, 388.857 644.302, 391.664 638.628 C 393.671 634.573, 395.066 630.636, 394.765 629.878 C 394.465 629.120, 383.932 623.145, 371.359 616.600 C 333.820 597.058, 324.087 590.279, 320.031 580.850 C 316.950 573.689, 315.743 558.350, 316.267 533 C 316.754 509.376, 317.650 505.585, 324.321 498.915 C 330.174 493.062, 353.219 478.136, 367.823 470.741 C 379.982 464.583, 380.257 464.500, 388.414 464.500 C 396.666 464.500, 396.711 464.514, 411.580 471.836 C 419.774 475.870, 435.777 484.758, 447.143 491.586 C 458.508 498.414, 468.731 504, 469.859 504 C 471.336 504, 473.074 502.042, 476.065 497.007 C 478.350 493.161, 479.976 489.381, 479.679 488.607 C 478.913 486.610, 440.499 463.774, 421.711 454.147 C 398.728 442.370, 390.374 440.273, 379 443.427 M 985 540.500 L 985 568 1018.500 568 L 1052 568 1052 695 L 1052 822 1079 822 L 1106 822 1106 695 L 1106 568 1139.500 568 L 1173 568 1173 540.500 L 1173 513 1079 513 L 985 513 985 540.500 M 1202 667.500 L 1202 822 1229 822 L 1256 822 1256 755 L 1256 688 1332.500 688 L 1409 688 1409 755 L 1409 822 1436 822 L 1463 822 1463 667.500 L 1463 513 1436 513 L 1409 513 1409 573 L 1409 633 1332.500 633 L 1256 633 1256 573 L 1256 513 1229 513 L 1202 513 1202 667.500 M 1515 540.500 L 1515 568 1634.500 568 L 1754 568 1754 540.500 L 1754 513 1634.500 513 L 1515 513 1515 540.500 M 1919 540.448 L 1919 568 1982.250 568.001 L 2045.500 568.002 2051.606 570.890 C 2058.925 574.353, 2064.038 579.232, 2067.736 586.283 C 2070.088 590.769, 2070.474 592.692, 2070.486 600 C 2070.498 607.288, 2070.103 609.307, 2067.720 614.161 C 2064.521 620.674, 2059.334 625.738, 2051.786 629.715 L 2046.500 632.500 1982.750 632.785 L 1919 633.070 1919 727.589 L 1919 822.107 1992.250 821.746 C 2076.050 821.332, 2072.936 821.634, 2092.500 812.035 C 2142.278 787.611, 2160.664 726.187, 2132.380 678.800 C 2129.412 673.827, 2123.876 666.901, 2118.250 661.120 C 2113.162 655.893, 2109 651.447, 2109 651.241 C 2109 651.035, 2110.075 649.434, 2111.390 647.683 C 2115.231 642.567, 2119.806 632.700, 2122.231 624.299 C 2124.147 617.667, 2124.485 614.106, 2124.492 600.500 C 2124.501 582.127, 2123.383 576.586, 2116.936 563.064 C 2105.627 539.345, 2086.350 523.318, 2060.021 515.744 C 2052.707 513.640, 2050.662 513.571, 1985.750 513.238 L 1919 512.896 1919 540.448 M 2184 667.470 L 2184 822.032 2211.250 821.766 L 2238.500 821.500 2238.754 694.750 L 2239.008 568 2283.993 568 C 2325.973 568, 2329.317 568.129, 2334.045 569.925 C 2341.794 572.869, 2347.406 578.048, 2351.200 585.755 C 2359.584 602.786, 2352.345 621.973, 2334.420 630.228 C 2329.675 632.413, 2328.320 632.506, 2296.250 632.829 C 2277.963 633.013, 2263 633.325, 2263 633.522 C 2263 633.719, 2273.175 656.970, 2285.611 685.190 C 2298.048 713.411, 2316.098 754.500, 2325.723 776.500 C 2335.348 798.500, 2343.860 817.737, 2344.637 819.250 L 2346.051 822 2375.026 822 C 2392.733 822, 2404 821.629, 2404 821.047 C 2404 820.176, 2375.661 754.679, 2353.907 705.271 C 2349.008 694.146, 2345 684.844, 2345 684.602 C 2345 684.359, 2347.363 683.387, 2350.250 682.441 C 2363.533 678.090, 2376.315 669.795, 2386.112 659.165 C 2396.789 647.581, 2404.474 632.502, 2407.565 617.073 C 2409.805 605.890, 2409.102 586.678, 2406.069 576.179 C 2397.566 546.750, 2374.530 524.271, 2344.093 515.700 C 2336.690 513.615, 2334.590 513.553, 2260.250 513.234 L 2184 512.907 2184 667.470 M 2748 667.516 L 2748 822.032 2775.250 821.766 L 2802.500 821.500 2802.753 667.250 L 2803.006 513 2775.503 513 L 2748 513 2748 667.516 M 2854.247 667.250 L 2854.500 821.500 2881.745 821.766 L 2908.990 822.032 2909.245 724.222 L 2909.500 626.411 2964 724.186 L 3018.500 821.960 3045.750 821.980 L 3073 822 3073 667.500 L 3073 513 3046.005 513 L 3019.010 513 3018.755 610.942 L 3018.500 708.885 2963.539 610.942 L 2908.578 513 2881.286 513 L 2853.994 513 2854.247 667.250 M 2542.286 515.750 C 2541.928 516.712, 2533.126 539.550, 2522.727 566.500 C 2482.947 669.589, 2425.717 818.576, 2425.248 820.265 C 2424.787 821.928, 2426.465 822.015, 2453.996 821.765 L 2483.232 821.500 2493.051 796 C 2498.452 781.975, 2517.575 732.250, 2535.547 685.500 C 2553.520 638.750, 2569.139 598.130, 2570.257 595.234 L 2572.290 589.968 2595.695 650.734 C 2608.568 684.155, 2628.080 734.900, 2639.054 763.500 C 2650.029 792.100, 2659.674 816.962, 2660.488 818.750 L 2661.968 822 2690.317 822 C 2705.909 822, 2718.908 821.759, 2719.202 821.464 C 2719.497 821.170, 2714.809 808.232, 2708.785 792.714 C 2702.761 777.197, 2686.799 735.700, 2673.314 700.500 C 2659.830 665.300, 2638.268 609.393, 2625.398 576.262 C 2612.529 543.131, 2602 515.568, 2602 515.012 C 2602 514.352, 2591.722 514, 2572.469 514 C 2545.258 514, 2542.886 514.138, 2542.286 515.750 M 386.364 531.765 C 384.377 533.051, 379 542.998, 379 545.389 C 379 546.655, 379.788 548.392, 380.750 549.250 C 381.712 550.108, 393.300 556.970, 406.500 564.500 C 448.847 588.656, 455.263 593.856, 457.986 606.234 C 458.623 609.130, 459.396 622.075, 459.704 635 C 460.488 667.927, 459.191 674.687, 450.467 683.142 C 444.582 688.845, 421.030 703.883, 407.115 710.822 C 395.918 716.407, 395.588 716.500, 387.115 716.498 L 378.500 716.496 364 709.148 C 356.025 705.106, 340.883 696.448, 330.351 689.907 C 309.433 676.916, 308.990 676.682, 307.432 677.761 C 305.279 679.252, 298.831 690.885, 299.172 692.665 C 300.068 697.349, 363.046 733.341, 377.904 737.661 C 385.678 739.920, 394.693 739.056, 403.947 735.162 C 420.510 728.193, 457.677 705.202, 467.694 695.728 C 476.812 687.105, 479.262 679.792, 480.501 657.500 C 481.216 644.645, 479.630 609.330, 477.900 599.580 C 475.578 586.489, 469.300 578.808, 451.872 567.738 C 441.118 560.906, 389.164 530.988, 388.103 531.015 C 387.771 531.024, 386.989 531.361, 386.364 531.765 M 287 623.815 C 272.863 631.815, 252.083 645.808, 246.504 651.085 C 235.577 661.419, 233.400 672.133, 234.330 711 C 235.248 749.357, 236.904 758.127, 244.966 767.309 C 249.310 772.256, 261.958 780.520, 275.629 787.342 C 289.936 794.481, 317.706 806, 320.612 806 C 321.845 806, 323.695 804.932, 324.722 803.626 C 327.372 800.257, 330.640 790.229, 329.455 789.101 C 328.930 788.601, 320.722 784.996, 311.216 781.091 C 282.903 769.460, 270.219 762.374, 262.655 753.961 C 257.059 747.737, 256.188 744.242, 254.853 722.632 C 253.616 702.601, 254.334 682.605, 256.561 675.108 C 259.317 665.826, 267.199 659.243, 297.500 640.913 C 303.629 637.205, 308.654 633.483, 308.847 632.506 C 309.203 630.709, 298.522 618.998, 296.531 619.002 C 295.964 619.004, 291.675 621.169, 287 623.815 M 1515 727.500 L 1515 822 1634.500 822 L 1754 822 1754 794.500 L 1754 767 1661.500 767 L 1569 767 1569 727.500 L 1569 688 1661.500 688 L 1754 688 1754 660.500 L 1754 633 1634.500 633 L 1515 633 1515 727.500 M 1973 727 L 1973 767 2012.250 766.994 C 2033.838 766.991, 2054.200 766.547, 2057.500 766.007 C 2070.542 763.874, 2082.270 755.059, 2087.820 743.218 C 2090.193 738.154, 2090.500 736.299, 2090.500 727 C 2090.500 717.701, 2090.193 715.846, 2087.820 710.782 C 2082.576 699.593, 2071.266 690.633, 2059.201 688.109 C 2055.826 687.403, 2039.209 687, 2013.451 687 L 1973 687 1973 727 M 480.093 757.811 C 461.720 768.117, 446.235 777.266, 445.683 778.141 C 444.926 779.341, 445.601 781.382, 448.424 786.430 C 450.484 790.114, 452.797 793.369, 453.565 793.663 C 454.722 794.107, 502.544 768.256, 515.250 760.318 L 519 757.975 519 749.687 C 519 741.298, 518.135 738.964, 515.050 739.036 C 514.197 739.056, 498.467 747.505, 480.093 757.811 M 255.759 801.250 C 255.060 803.170, 256.809 841.560, 257.971 849.789 C 259.174 858.312, 261.587 863.520, 266.705 868.638 C 272.653 874.587, 287.140 883.460, 307.489 893.620 C 325.817 902.772, 328.851 904.814, 327.459 907.066 C 326.074 909.307, 325.277 937.301, 326.151 953 C 327.554 978.203, 329.754 984.272, 340.585 992.827 C 350.369 1000.556, 377.160 1015.637, 379.040 1014.475 C 380.471 1013.591, 380.229 999.667, 378.750 997.825 C 378.063 996.969, 373.198 993.768, 367.940 990.713 C 354.865 983.116, 348.671 978.017, 346.123 972.753 C 341.946 964.125, 340.890 924.467, 344.513 912.268 C 346.369 906.017, 350.443 902.173, 365.819 892.162 C 384.062 880.286, 393.997 875.624, 402.037 875.169 C 408.543 874.800, 408.656 874.840, 425.537 883.410 C 448.109 894.870, 456.969 901.193, 460.464 908.337 C 462.722 912.951, 463.231 915.710, 463.944 927.176 C 464.404 934.564, 464.539 950.359, 464.244 962.275 C 463.831 978.955, 463.999 984.294, 464.976 985.471 C 465.873 986.552, 468.123 987, 472.647 987 C 478.600 987, 479.118 986.820, 480.025 984.435 C 481.323 981.020, 481.279 930.458, 479.965 916.607 C 479.319 909.787, 478.148 903.890, 476.834 900.837 C 472.743 891.326, 459.182 881.558, 429.860 867.001 C 420.862 862.534, 412.825 858.514, 412 858.069 C 410.365 857.187, 410.376 857.721, 411.454 833.500 C 411.820 825.250, 411.756 814.900, 411.310 810.500 L 410.500 802.500 402.750 802.208 C 398.488 802.047, 394.975 802.272, 394.944 802.708 C 394.913 803.144, 394.801 812.950, 394.694 824.500 C 394.425 853.619, 394.116 854.183, 370.150 869.365 C 351.573 881.133, 341.906 885.500, 334.433 885.500 C 329.011 885.500, 326.992 884.827, 315.433 879.168 C 291.900 867.646, 280.472 859.806, 276.844 852.695 C 274.738 848.567, 274.152 844.021, 272.242 817 L 271.500 806.500 265.500 803.278 C 259.041 799.810, 256.478 799.276, 255.759 801.250 M 405.207 942.250 C 402.052 946.052, 403.037 1000.043, 406.504 1013.355 C 409.380 1024.396, 415.182 1030.563, 433.743 1042.305 C 448.536 1051.663, 480.625 1067.568, 487.740 1069.069 C 491.928 1069.952, 495.149 1070.006, 499.546 1069.266 C 507.660 1067.902, 520.582 1061.894, 521.478 1059.069 C 521.854 1057.883, 521.849 1053.571, 521.467 1049.487 C 520.925 1043.702, 520.387 1041.940, 519.033 1041.510 C 518.077 1041.207, 513.741 1042.654, 509.397 1044.726 C 502.546 1047.995, 500.552 1048.494, 494.341 1048.497 C 487.347 1048.500, 486.781 1048.300, 469.841 1039.847 C 450.119 1030.005, 436.195 1021.224, 430.806 1015.229 C 424.408 1008.110, 423.750 1004.264, 423.426 972.120 C 423.250 954.605, 422.751 943.351, 422.124 942.724 C 421.564 942.164, 417.806 941.495, 413.773 941.236 C 408.078 940.870, 406.164 941.097, 405.207 942.250" stroke="none" fill="#0c042c" fill-rule="evenodd"/><path d="M 615.638 374.585 C 592.387 380.214, 574.930 399.258, 569.425 425 C 568.254 430.476, 568.032 484.819, 568.017 769.849 C 568.001 1079.975, 568.135 1108.483, 569.623 1111.619 C 571.463 1115.497, 575.482 1118.698, 580.254 1120.087 C 584.162 1121.225, 602.344 1119.738, 619 1116.919 C 696.629 1103.779, 764.409 1063.277, 815.499 999.500 C 829.043 982.594, 844.421 957.814, 854.520 936.624 C 874.024 895.700, 884.506 853.591, 887.002 806.139 C 888.345 780.588, 888.301 543.450, 886.951 535.129 C 885.665 527.203, 882.991 521.755, 877.645 516.167 C 872.952 511.262, 869.161 509.083, 859.929 505.983 C 828.854 495.550, 806.143 470.672, 797.408 437.500 C 795.960 432, 793.675 425.617, 792.331 423.315 C 789.574 418.595, 783.659 412.909, 778.999 410.500 C 776.183 409.043, 674.860 381.405, 650.500 375.448 C 638.952 372.624, 625.152 372.283, 615.638 374.585 M 703.990 443.470 C 695.827 446.095, 667.863 460.646, 646.616 473.325 L 625.732 485.786 620.039 485.270 C 601.596 483.597, 591.849 504.880, 605.548 516.908 C 612.411 522.933, 621.640 523.283, 629.058 517.799 C 632.234 515.451, 636 508.664, 636 505.289 C 636 503.646, 640.254 500.689, 656.250 491.213 C 667.388 484.615, 683.025 475.906, 691 471.860 L 705.500 464.504 714.161 464.502 C 722.718 464.500, 722.960 464.569, 734.161 470.230 C 747.302 476.872, 771.755 492.508, 777.335 497.837 C 786.027 506.140, 787.532 514.017, 786.632 546.500 C 786.252 560.199, 785.441 571.829, 784.626 575.260 C 781.467 588.560, 772.925 595.163, 730.618 617.008 C 709.250 628.042, 709.094 628.102, 704.976 626.993 C 697.745 625.046, 689.407 628.273, 684.983 634.730 C 682.944 637.706, 682.500 639.557, 682.500 645.084 C 682.500 651.096, 682.828 652.225, 685.571 655.657 C 689.535 660.618, 694.305 662.997, 700.290 662.998 C 708.865 663.001, 715.861 657.709, 718.126 649.506 C 718.974 646.434, 720.214 645.468, 729.788 640.420 C 771.378 618.489, 782.792 611.763, 792.708 603.341 C 799.153 597.867, 803.558 589.300, 804.967 579.500 C 806.955 565.668, 807.962 537.769, 807.042 522 C 805.901 502.436, 803.874 495.301, 797.419 488.121 C 788.962 478.715, 748.351 453.103, 730.500 445.918 C 721.037 442.109, 711.081 441.190, 703.990 443.470 M 723.564 519.205 C 718.145 520.363, 713.126 524.461, 710.862 529.578 C 709.073 533.624, 707.818 534.526, 689.231 545.134 C 639.248 573.662, 631.628 579.373, 626.980 591.787 C 623.938 599.911, 622.735 614.020, 622.612 643 C 622.429 686.179, 624.089 689.865, 652.081 708.451 C 667.311 718.563, 678.672 725.289, 691.012 731.498 C 706.752 739.418, 715.532 740.715, 727.054 736.824 C 735.640 733.925, 761.289 720.670, 776.104 711.476 C 786.543 704.998, 788.364 704.188, 790.587 705.033 C 803.988 710.128, 818.493 697.265, 814.869 683.500 C 812.692 675.233, 805.042 669.044, 797 669.044 C 789.237 669.044, 780.827 675.617, 779.388 682.809 C 778.839 685.555, 777.042 687.016, 765.130 694.402 C 757.633 699.050, 745.236 705.923, 737.580 709.676 C 723.871 716.396, 723.537 716.500, 715.580 716.500 C 709.298 716.500, 706.276 715.973, 702 714.133 C 687.916 708.071, 653.869 686.317, 649.499 680.587 C 645.216 674.973, 643.954 670.345, 642.978 656.687 C 641.983 642.765, 643.112 614.814, 645.053 605.323 C 646.408 598.697, 650.488 593.109, 658.019 587.565 C 663.300 583.677, 691.290 567.064, 710.182 556.604 L 716.863 552.904 722.182 554.426 C 741.812 560.045, 754.614 535.792, 738.967 522.625 C 736.189 520.288, 734.310 519.533, 729 518.622 C 728.175 518.481, 725.729 518.743, 723.564 519.205 M 801.843 612.953 C 791.762 616.082, 786.460 624.976, 788.426 635.458 C 789.243 639.810, 794.300 645.809, 798.702 647.649 C 802.556 649.259, 810.346 649.421, 813.099 647.947 C 814.743 647.067, 816.686 647.955, 824.932 653.358 C 844.299 666.047, 846.628 669.723, 848.080 689.885 C 849.001 702.678, 847.799 733.491, 846.080 741.142 C 843.092 754.437, 828.030 765.679, 794.561 779.593 C 778.287 786.358, 777.352 786.623, 774.282 785.343 C 768.472 782.918, 760.548 784.386, 755.680 788.788 C 748.776 795.031, 748.090 808.153, 754.317 814.847 C 763.935 825.188, 780.890 821.733, 785.437 808.507 C 786.688 804.865, 787.097 804.628, 805.107 797.081 C 829.868 786.706, 851.621 773.317, 859.139 763.825 C 865.852 755.348, 867.532 746.076, 868.607 711.570 C 869.350 687.722, 868.118 672.081, 864.792 663.144 C 861.938 655.476, 853.685 647.670, 837.677 637.500 C 826.477 630.384, 824.967 629.090, 824.016 625.795 C 822.757 621.432, 818.828 616.474, 815.131 614.582 C 811.544 612.747, 805.064 611.953, 801.843 612.953 M 584 747.794 L 584 758.587 605.667 770.681 C 626.352 782.226, 627.405 782.959, 628.917 786.862 C 631.022 792.298, 634.221 795.744, 639.309 798.053 C 644.569 800.441, 648.392 800.459, 653.541 798.120 C 664.263 793.250, 667.996 780.637, 661.584 770.948 C 657.019 764.049, 647.648 761.190, 639.390 764.176 C 636.243 765.314, 635.317 764.894, 610.711 751.176 C 596.726 743.379, 584.995 737, 584.642 737 C 584.289 737, 584 741.857, 584 747.794 M 692.500 783.665 C 682.838 788.770, 679.410 799.019, 684.114 808.736 C 685.277 811.138, 687.302 813.807, 688.614 814.667 C 690.910 816.171, 691.001 816.690, 691.020 828.365 C 691.039 839.660, 691.887 848.922, 693.467 855.073 C 694.071 857.424, 693.757 857.756, 689.814 858.932 C 683.498 860.817, 656.002 875.233, 644.943 882.458 C 628.548 893.169, 624.802 898.564, 622.898 914.208 C 622.276 919.319, 621.801 935.016, 621.843 949.092 L 621.919 974.684 618.866 976.941 C 615.211 979.643, 612.044 986.170, 612.044 991 C 612.044 995.944, 615.200 1002.291, 619.141 1005.274 C 627.307 1011.453, 637.225 1010.686, 644.186 1003.336 C 651.404 995.717, 650.625 984.268, 642.399 977.045 L 638.500 973.622 638.551 947.061 C 638.608 917.641, 639.403 911.504, 643.980 905.186 C 647.639 900.135, 659.627 892.259, 677.881 882.913 C 690.766 876.316, 692.950 875.515, 698.881 875.205 C 705.041 874.883, 706.140 875.173, 714.733 879.388 C 719.811 881.879, 729.449 887.391, 736.152 891.637 C 759.980 906.733, 760.447 907.746, 759.826 942.995 C 759.414 966.358, 759.376 966.712, 756.664 972.254 C 754.608 976.457, 752.407 978.987, 747.884 982.349 L 741.848 986.834 737.674 984.939 C 727.331 980.243, 715.719 985.471, 712.513 996.268 C 709.737 1005.617, 713.469 1013.719, 722.700 1018.383 C 731.574 1022.867, 745.505 1016.593, 747.593 1007.173 C 747.919 1005.703, 748.379 1003.825, 748.614 1003 C 748.850 1002.175, 751.490 1000.021, 754.480 998.214 C 763.755 992.609, 770.634 985.593, 772.965 979.363 C 777.603 966.968, 778.575 917.978, 774.444 904.840 C 774.058 903.610, 774.904 902.862, 777.711 901.950 C 790.301 897.860, 825.705 877.865, 834.358 869.956 C 841.411 863.510, 843.746 858.347, 845.195 845.994 C 846.133 838.002, 846.714 835.908, 848.121 835.462 C 851.051 834.532, 855.847 828.280, 857.046 823.829 C 860.076 812.576, 851.366 801, 839.869 801 C 834.012 801, 830.352 802.330, 826.627 805.814 C 820.177 811.844, 819.079 821.580, 823.978 829.304 C 825.616 831.887, 827.416 834, 827.978 834 C 829.523 834, 829.202 842.955, 827.445 848.874 C 826.440 852.258, 824.551 855.449, 822.104 857.896 C 813.886 866.114, 779.415 884.748, 770.591 885.743 C 762.693 886.633, 749.515 880.676, 728.500 866.717 C 710.275 854.611, 708.828 852.151, 708.197 832.205 L 707.745 817.910 711.794 814.444 C 719.382 807.949, 720.888 798.018, 715.522 789.871 C 711.012 783.024, 699.557 779.936, 692.500 783.665 M 1003.070 911.416 C 1002.377 912.251, 1002.019 915.225, 1002.198 918.666 L 1002.500 924.500 1018.250 924.775 L 1034 925.051 1034 952.525 L 1034 980 1036.943 980 C 1042.667 980, 1043 978.366, 1043 950.277 L 1043 925 1057 925 C 1073.932 925, 1075 924.436, 1075 915.500 L 1075 910 1039.622 910 C 1010.333 910, 1004.043 910.244, 1003.070 911.416 M 1106.035 911.934 C 1105.381 913.156, 1105 926.054, 1105 946.934 L 1105 980 1107.943 980 C 1112.961 980, 1114 977.218, 1114 963.777 L 1114 952 1141.472 952 L 1168.944 952 1169.222 965.750 L 1169.500 979.500 1172.451 979.836 C 1177.904 980.456, 1178 979.824, 1178 943.246 L 1178 909.873 1174.773 910.187 C 1170.068 910.644, 1169.032 913.532, 1169.015 926.250 L 1169 937 1141.500 937 L 1114 937 1114 923.500 L 1114 910 1110.535 910 C 1108.133 910, 1106.753 910.593, 1106.035 911.934 M 1225.948 912.388 C 1217.347 918.236, 1213.480 928.565, 1213.550 945.500 C 1213.604 958.732, 1215.289 964.957, 1220.916 972.726 C 1226.013 979.762, 1227.241 980, 1258.382 980 L 1285.962 980 1286.591 977.493 C 1286.937 976.115, 1286.928 973.429, 1286.571 971.526 C 1285.332 964.923, 1285.685 965, 1256.532 965 L 1230.207 965 1227.229 961.608 C 1219.962 953.332, 1220.499 934.203, 1228.199 927.029 C 1230.270 925.099, 1231.637 925, 1256.078 925 C 1286.454 925, 1286.366 925.026, 1286.450 915.879 L 1286.500 910.500 1258 910.236 L 1229.500 909.972 1225.948 912.388 M 1432 945 L 1432 980 1463.423 980 L 1494.847 980 1498.066 977.291 C 1502.924 973.203, 1504.952 967.799, 1504.978 958.876 C 1504.990 954.682, 1504.358 949.432, 1503.573 947.208 C 1502.328 943.679, 1502.337 942.548, 1503.643 938.332 C 1506.367 929.532, 1503.269 916.717, 1497.278 912.004 C 1494.852 910.095, 1493.236 910, 1463.365 910 L 1432 910 1432 945 M 1540.667 910.667 C 1538.641 912.692, 1540.588 922.357, 1543.400 924.235 C 1544.005 924.639, 1557.382 924.976, 1573.128 924.985 C 1605.236 925.002, 1604.455 924.821, 1604.455 932.224 C 1604.455 938.993, 1604.422 939, 1571.430 939 L 1542.243 939 1541.097 941.767 C 1540.345 943.582, 1540.045 950.544, 1540.225 962.017 L 1540.500 979.500 1543.372 979.828 C 1544.951 980.009, 1546.751 979.651, 1547.372 979.032 C 1548.032 978.375, 1548.707 972.637, 1549 965.204 L 1549.500 952.500 1564.664 952.224 C 1582.610 951.898, 1580.338 950.688, 1594.271 968 C 1603.483 979.448, 1603.547 979.501, 1608.179 979.801 C 1612.035 980.051, 1612.937 979.775, 1613.439 978.192 C 1614.350 975.322, 1613.423 973.697, 1604.869 963.168 C 1600.549 957.851, 1597.012 953.163, 1597.008 952.750 C 1597.003 952.337, 1598.628 952, 1600.618 952 C 1603.467 952, 1605.034 951.201, 1607.997 948.238 C 1614.455 941.781, 1615.569 929.921, 1610.771 918.713 C 1606.927 909.732, 1608.102 910, 1572.532 910 C 1555.373 910, 1541.033 910.300, 1540.667 910.667 M 1673.177 911.750 C 1670.991 913.621, 1642 975.535, 1642 978.333 C 1642 979.641, 1642.965 980, 1646.477 980 C 1650.017 980, 1651.262 979.529, 1652.426 977.750 C 1653.236 976.513, 1659.122 964.250, 1665.507 950.500 C 1671.892 936.750, 1677.443 925.169, 1677.843 924.765 C 1678.242 924.361, 1683.898 935.611, 1690.411 949.765 C 1696.924 963.919, 1702.881 976.513, 1703.649 977.750 C 1704.756 979.533, 1705.963 980, 1709.464 980 C 1711.894 980, 1714.137 979.588, 1714.448 979.084 C 1715.143 977.959, 1685.947 914.704, 1683.469 911.965 C 1681.236 909.498, 1675.937 909.387, 1673.177 911.750 M 1745.962 912.601 C 1745.363 914.175, 1745.077 927.895, 1745.236 947.351 L 1745.500 979.500 1748.451 979.836 C 1753.903 980.456, 1754 979.819, 1754 943.309 L 1754 910 1750.475 910 C 1747.599 910, 1746.769 910.479, 1745.962 912.601 M 1804.035 911.934 C 1803.381 913.156, 1803 926.054, 1803 946.934 L 1803 980 1806.465 980 C 1808.867 980, 1810.247 979.407, 1810.965 978.066 C 1811.601 976.877, 1812 966.251, 1812 950.482 C 1812 936.375, 1812.390 924.983, 1812.867 925.167 C 1813.343 925.350, 1825.332 937.763, 1839.509 952.750 C 1865.203 979.914, 1865.298 980, 1869.442 980 C 1871.729 980, 1874.140 979.460, 1874.800 978.800 C 1875.686 977.914, 1876 968.756, 1876 943.800 L 1876 910 1873.122 910 C 1867.761 910, 1867.544 911.037, 1867 939.223 L 1866.500 965.144 1844.500 941.969 C 1832.400 929.222, 1820.659 916.815, 1818.409 914.397 C 1814.713 910.425, 1813.871 910, 1809.694 910 C 1806.146 910, 1804.830 910.450, 1804.035 911.934 M 2036.280 911.971 C 2034.509 913.050, 2031.692 915.823, 2030.020 918.132 C 2020.512 931.257, 2020.512 958.743, 2030.020 971.868 C 2035.681 979.684, 2036.800 979.993, 2059.500 979.993 C 2082.210 979.993, 2083.317 979.687, 2088.999 971.843 C 2094.254 964.589, 2096.293 955.768, 2095.731 942.719 C 2095.176 929.814, 2094.198 926.008, 2089.723 919.349 C 2083.640 910.298, 2082.679 909.999, 2059.602 910.004 C 2041.390 910.007, 2039.197 910.192, 2036.280 911.971 M 2143.500 911.871 C 2138.997 914.668, 2136.414 917.869, 2133.308 924.503 C 2130.503 930.493, 2130.500 930.528, 2130.173 955.250 L 2129.846 980 2132.866 980 C 2138.419 980, 2138.999 977.830, 2139.006 957.027 C 2139.012 936.579, 2139.685 932.619, 2143.926 928.079 L 2146.802 925 2172.901 925 C 2197.667 925, 2199.102 924.898, 2201 923 C 2202.515 921.485, 2203 919.667, 2203 915.500 L 2203 910 2174.750 910.004 C 2148.935 910.007, 2146.241 910.168, 2143.500 911.871 M 2371.871 912.250 C 2369.597 914.837, 2341 976.191, 2341 978.482 C 2341 980.745, 2349.211 980.557, 2351.195 978.250 C 2352.023 977.288, 2357.980 965.025, 2364.433 951 C 2370.887 936.975, 2376.502 925.150, 2376.911 924.723 C 2377.320 924.295, 2382.996 935.545, 2389.525 949.723 C 2396.054 963.900, 2402.034 976.513, 2402.813 977.750 C 2403.927 979.518, 2405.156 980, 2408.556 980 C 2410.935 980, 2413.149 979.567, 2413.476 979.038 C 2414.245 977.794, 2385.414 915.214, 2382.707 912.250 C 2381.346 910.761, 2379.502 910, 2377.250 910 C 2374.975 910, 2373.194 910.745, 2371.871 912.250 M 2558.200 911.200 C 2557.314 912.086, 2557 921.244, 2557 946.200 L 2557 980 2559.878 980 C 2565.240 980, 2565.456 978.967, 2566 950.736 L 2566.500 924.774 2582.910 942.137 C 2591.935 951.687, 2603.815 964.112, 2609.309 969.750 C 2618.932 979.623, 2619.457 980, 2623.614 980 C 2626.857 980, 2628.187 979.519, 2628.965 978.066 C 2629.619 976.844, 2630 963.946, 2630 943.066 L 2630 910 2626.535 910 C 2624.133 910, 2622.753 910.593, 2622.035 911.934 C 2621.399 913.123, 2621 923.723, 2621 939.434 C 2621 953.495, 2620.662 964.959, 2620.250 964.909 C 2619.838 964.859, 2607.864 952.484, 2593.642 937.409 C 2567.785 910.002, 2567.784 910, 2563.592 910 C 2561.286 910, 2558.860 910.540, 2558.200 911.200 M 2692.147 911.750 C 2689.873 913.668, 2661 975.254, 2661 978.186 C 2661 979.670, 2661.821 980, 2665.515 980 C 2671.122 980, 2670.143 981.550, 2685 949.143 C 2691.325 935.347, 2696.728 924.045, 2697.007 924.029 C 2697.285 924.013, 2703.087 936.124, 2709.900 950.943 C 2716.713 965.762, 2722.762 978.362, 2723.343 978.943 C 2723.924 979.524, 2726.335 980, 2728.700 980 C 2732.229 980, 2733 979.666, 2733 978.135 C 2733 975.753, 2704.625 914.348, 2702.376 911.863 C 2700.235 909.497, 2694.888 909.438, 2692.147 911.750 M 2757.984 912.030 C 2757.386 913.146, 2757.033 916.409, 2757.199 919.280 L 2757.500 924.500 2773.250 924.775 L 2789 925.051 2789 952.525 L 2789 980 2791.845 980 C 2797.782 980, 2798 978.961, 2798 950.671 L 2798 925 2812 925 C 2828.932 925, 2830 924.436, 2830 915.500 L 2830 910 2794.535 910 C 2759.919 910, 2759.044 910.049, 2757.984 912.030 M 2861.021 911.960 C 2860.335 913.243, 2860.064 925.241, 2860.236 946.710 L 2860.500 979.500 2863.451 979.836 C 2868.903 980.456, 2869 979.819, 2869 943.309 L 2869 910 2865.535 910 C 2863.117 910, 2861.753 910.592, 2861.021 911.960 M 2918.500 911.164 C 2909.004 916.403, 2904.033 928.063, 2904.012 945.145 C 2903.993 960.585, 2908.992 972.976, 2917.280 978.029 C 2920.197 979.808, 2922.390 979.993, 2940.600 979.996 L 2960.700 980 2964.783 977.042 C 2972.824 971.217, 2977 960.239, 2977 944.924 C 2977 929.399, 2972.015 917.028, 2963.720 911.971 C 2960.799 910.190, 2958.643 910.010, 2940.500 910.034 C 2927.842 910.051, 2919.766 910.466, 2918.500 911.164 M 3013.063 911.882 C 3012.374 913.170, 3012 925.494, 3012 946.934 L 3012 980 3014.943 980 C 3020.681 980, 3021 978.410, 3021 949.803 L 3021 924.052 3047.613 952.026 L 3074.227 980 3078.578 980 C 3081.857 980, 3083.185 979.523, 3083.965 978.066 C 3084.619 976.844, 3085 963.946, 3085 943.066 L 3085 910 3082.122 910 C 3076.760 910, 3076.544 911.034, 3076 939.260 L 3075.500 965.217 3049.456 937.858 L 3023.412 910.500 3018.769 910.198 C 3014.975 909.951, 3013.932 910.259, 3013.063 911.882 M 681.500 923.881 C 676.742 926.066, 674.610 928.296, 672.538 933.254 C 669.561 940.380, 671.081 947.888, 676.610 953.361 C 679.362 956.086, 679.516 956.707, 679.835 966.406 C 680.242 978.784, 678.542 1002.020, 676.828 1007.500 C 674.062 1016.346, 659.009 1027.233, 629.580 1041.671 C 616.353 1048.160, 615.306 1048.500, 608.566 1048.500 C 602.148 1048.500, 600.535 1048.047, 591.647 1043.750 C 586.243 1041.138, 581.637 1039, 581.411 1039 C 581.185 1039, 581 1043.879, 581 1049.842 L 581 1060.685 588.977 1064.428 C 600.362 1069.770, 607.847 1070.877, 616.626 1068.514 C 624.287 1066.453, 649.869 1053.830, 666.410 1043.950 C 687.146 1031.564, 694.641 1023.242, 696.989 1010 C 698.497 1001.496, 699.981 972.161, 699.309 964.145 L 698.707 956.960 702.320 953.347 C 716.926 938.740, 700.321 915.238, 681.500 923.881 M 1441 931 L 1441 937 1467.379 937 L 1493.757 937 1495 934 C 1495.990 931.609, 1495.990 930.391, 1495 928 L 1493.757 925 1467.379 925 L 1441 925 1441 931 M 2037.088 927.906 C 2033.551 931.692, 2031.998 937.109, 2032.010 945.616 C 2032.021 953.325, 2035.263 962, 2038.851 963.920 C 2040.088 964.582, 2048.076 965, 2059.500 965 C 2070.924 965, 2078.912 964.582, 2080.149 963.920 C 2083.737 962, 2086.979 953.325, 2086.990 945.616 C 2087.002 937.109, 2085.449 931.692, 2081.912 927.906 L 2079.198 925 2059.500 925 L 2039.802 925 2037.088 927.906 M 2918.088 927.906 C 2914.627 931.611, 2913 937.077, 2913 945 C 2913 952.923, 2914.627 958.389, 2918.088 962.094 L 2920.802 965 2939.936 965 C 2961.916 965, 2962.547 964.806, 2965.897 957.017 C 2969.808 947.926, 2968.352 933.730, 2962.912 927.906 L 2960.198 925 2940.500 925 L 2920.802 925 2918.088 927.906 M 1231.790 938.047 C 1229.577 939.351, 1228.580 944.764, 1229.909 948.260 L 1230.950 951 1253.353 951 C 1271.476 951, 1275.980 950.729, 1276.933 949.581 C 1277.611 948.764, 1277.981 945.902, 1277.805 942.831 L 1277.500 937.500 1255.500 937.270 C 1242.091 937.130, 1232.832 937.433, 1231.790 938.047 M 2148.019 938.981 C 2146.532 940.468, 2146 942.318, 2146 946 L 2146 951 2169.465 951 C 2196.231 951, 2195.387 951.293, 2194.803 942.216 L 2194.500 937.500 2172.269 937.231 C 2151.110 936.975, 2149.941 937.059, 2148.019 938.981 M 1441 958 L 1441 965 1467.300 965 C 1486.422 965, 1493.928 964.672, 1494.800 963.800 C 1496.499 962.101, 1496.289 955.857, 1494.443 953.223 C 1492.903 951.023, 1492.619 951, 1466.943 951 L 1441 951 1441 958" stroke="none" fill="#ec9424" fill-rule="evenodd"/></svg>